<svg xmlns="http://www.w3.org/2000/svg" viewBox="0 0 19.89 16.96"><defs><style>.cls-1{fill:#129d99;}.cls-2{fill:none;stroke:#129d99;}</style></defs><g id="Layer_2" data-name="Layer 2"><g id="Layer_1-2" data-name="Layer 1"><g id="Group_11772" data-name="Group 11772"><path id="ic_visibility_24px" data-name="ic visibility 24px" class="cls-1" d="M14.45,4.94A5.6,5.6,0,0,0,9.23,8.5a5.61,5.61,0,0,0,10.45,0A5.61,5.61,0,0,0,14.45,4.94Zm0,5.94A2.38,2.38,0,1,1,16.83,8.5h0A2.37,2.37,0,0,1,14.45,10.88Zm0-3.8A1.43,1.43,0,1,0,15.88,8.5h0a1.42,1.42,0,0,0-1.42-1.42Z"/></g><line class="cls-2" x1="0.01" y1="0.5" x2="19.89" y2="0.5"/><line class="cls-2" x1="0.01" y1="5.82" x2="8.05" y2="5.82"/><line class="cls-2" x1="0.01" y1="11.14" x2="7.96" y2="11.14"/><line class="cls-2" y1="16.45" x2="19.89" y2="16.46"/></g></g></svg>