<svg xmlns="http://www.w3.org/2000/svg" width="13.631" height="9.294" viewBox="0 0 13.631 9.294">
  <g id="Group_11772" data-name="Group 11772" transform="translate(-636 -1716)">
    <path id="ic_visibility_24px" d="M7.815,4.5A7.328,7.328,0,0,0,1,9.147a7.321,7.321,0,0,0,13.631,0A7.328,7.328,0,0,0,7.815,4.5Zm0,7.745a3.1,3.1,0,1,1,3.1-3.1A3.1,3.1,0,0,1,7.815,12.245Zm0-4.957A1.859,1.859,0,1,0,9.674,9.147,1.856,1.856,0,0,0,7.815,7.288Z" transform="translate(635 1711.5)" fill="#129d99"/>
  </g>
</svg>
