<svg xmlns="http://www.w3.org/2000/svg" width="14" height="13.998" viewBox="0 0 14 13.998">
  <path id="Path_17266" data-name="Path 17266" d="M-66.97,241.6l-1.258-.577a.438.438,0,0,1-.266-.444,5.4,5.4,0,0,0-.044-.977.457.457,0,0,1,.237-.473l1.2-.681a.46.46,0,0,0,.192-.592l-.547-1.169a.452.452,0,0,0-.577-.237l-1.287.488a.46.46,0,0,1-.5-.118,5.162,5.162,0,0,0-.725-.666.451.451,0,0,1-.163-.488l.37-1.332a.474.474,0,0,0-.281-.562l-1.2-.444a.467.467,0,0,0-.577.237l-.577,1.258a.438.438,0,0,1-.444.266,5.4,5.4,0,0,0-.977.044.457.457,0,0,1-.473-.237l-.681-1.2a.46.46,0,0,0-.592-.192l-1.169.547a.452.452,0,0,0-.237.577l.488,1.287a.46.46,0,0,1-.118.5,5.161,5.161,0,0,0-.666.725.451.451,0,0,1-.488.163l-1.332-.37a.474.474,0,0,0-.562.281l-.444,1.2a.467.467,0,0,0,.237.577l1.258.577a.438.438,0,0,1,.266.444,5.4,5.4,0,0,0,.044.977.457.457,0,0,1-.237.473l-1.2.681a.46.46,0,0,0-.192.592l.547,1.169a.452.452,0,0,0,.577.237l1.287-.488a.46.46,0,0,1,.5.118,5.162,5.162,0,0,0,.725.666.451.451,0,0,1,.163.488l-.37,1.332a.474.474,0,0,0,.281.562l1.2.444A.467.467,0,0,0-75,247.03l.577-1.258a.438.438,0,0,1,.444-.266,5.4,5.4,0,0,0,.977-.044.457.457,0,0,1,.473.237l.681,1.2a.46.46,0,0,0,.592.192l1.169-.547a.452.452,0,0,0,.237-.577l-.488-1.287a.46.46,0,0,1,.118-.5,5.162,5.162,0,0,0,.666-.725.451.451,0,0,1,.488-.163l1.332.37a.474.474,0,0,0,.562-.281l.444-1.2A.442.442,0,0,0-66.97,241.6Zm-5.578,1.2a2.732,2.732,0,0,1-3.625-1.317,2.732,2.732,0,0,1,1.317-3.625,2.732,2.732,0,0,1,3.625,1.317A2.711,2.711,0,0,1-72.548,242.8Z" transform="translate(80.702 -233.298)" fill="#17bebb"/>
</svg>
