<svg xmlns="http://www.w3.org/2000/svg" width="14" height="13.519" viewBox="0 0 14 13.519">
  <path id="Path_17267" data-name="Path 17267" d="M93.248,244.258a4.814,4.814,0,0,1-1.953.4A4.706,4.706,0,0,1,89,244.088a4,4,0,0,1-1.585-1.557,4.109,4.109,0,0,1-.354-.863H92.6l.694-1.189h-6.4c0-.071-.028-.142-.028-.226,0-.226.028-.467.042-.679h5.676l.694-1.189H87.26a4.515,4.515,0,0,1,.863-1.232,4.262,4.262,0,0,1,3.1-1.26,5.32,5.32,0,0,1,3.949,1.84L96.9,236.1a7.326,7.326,0,0,0-2.548-1.911,7.073,7.073,0,0,0-3.086-.694,6.963,6.963,0,0,0-3.5.906,6.471,6.471,0,0,0-2.491,2.406,6.217,6.217,0,0,0-.637,1.557H83.594l-.694,1.189h1.543a5.343,5.343,0,0,0-.028.679v.226h-.821l-.694,1.189h1.628a6.112,6.112,0,0,0,1.8,3.454,6.746,6.746,0,0,0,4.926,1.911,7.347,7.347,0,0,0,2.888-.538,9.09,9.09,0,0,0,2.7-1.939l-1.685-1.727A6.319,6.319,0,0,1,93.248,244.258Z" transform="translate(-82.9 -233.5)" fill="#17bebb"/>
</svg>
