<svg xmlns="http://www.w3.org/2000/svg" width="6.125" height="14" viewBox="0 0 6.125 14">
  <g id="Group_11871" data-name="Group 11871" transform="translate(-586 -1400)">
    <path id="ic_check_box_24px" d="M8.444,3H3.681A.68.68,0,0,0,3,3.681V8.444a.68.68,0,0,0,.681.681H8.444a.68.68,0,0,0,.681-.681V3.681A.68.68,0,0,0,8.444,3ZM5.382,7.764l-1.7-1.7.48-.48L5.382,6.8,7.965,4.218l.48.483Z" transform="translate(583 1397)" fill="#129d99"/>
    <path id="ic_check_box_24px-2" data-name="ic_check_box_24px" d="M8.444,3H3.681A.68.68,0,0,0,3,3.681V8.444a.68.68,0,0,0,.681.681H8.444a.68.68,0,0,0,.681-.681V3.681A.68.68,0,0,0,8.444,3ZM5.382,7.764l-1.7-1.7.48-.48L5.382,6.8,7.965,4.218l.48.483Z" transform="translate(583 1404.875)" fill="#129d99"/>
  </g>
</svg>
