<?xml version="1.0" standalone="no"?>
<!DOCTYPE svg PUBLIC "-//W3C//DTD SVG 20010904//EN"
 "http://www.w3.org/TR/2001/REC-SVG-20010904/DTD/svg10.dtd">
<svg version="1.0" xmlns="http://www.w3.org/2000/svg"
 width="21.000000pt" height="21.000000pt" viewBox="0 0 21.000000 21.000000"
 preserveAspectRatio="xMidYMid meet">

<g transform="translate(0.000000,21.000000) scale(0.100000,-0.100000)"
fill="#000000" stroke="none">
<path d="M103 150 c-100 -55 -102 -57 -78 -70 22 -12 28 -9 76 31 55 45 56 40
7 -22 -15 -20 -28 -47 -28 -59 0 -22 1 -22 19 -6 15 14 23 15 45 5 14 -7 28
-10 31 -7 6 5 36 181 32 184 -1 1 -48 -24 -104 -56z"/>
</g>
</svg>
